<?xml version="1.0" standalone="no"?>
<!DOCTYPE svg PUBLIC "-//W3C//DTD SVG 20010904//EN"
 "http://www.w3.org/TR/2001/REC-SVG-20010904/DTD/svg10.dtd">
<svg version="1.0" xmlns="http://www.w3.org/2000/svg"
 width="1024.000000pt" height="1024.000000pt" viewBox="0 0 1024.000000 1024.000000"
 preserveAspectRatio="xMidYMid meet">
<metadata>
Created by potrace 1.11, written by Peter Selinger 2001-2013
</metadata>
<g transform="translate(0.000000,1024.000000) scale(0.100000,-0.100000)"
fill="#000000" stroke="none">
<path d="M0 5120 l0 -5120 5120 0 5120 0 0 5120 0 5120 -5120 0 -5120 0 0
-5120z m5615 3980 c624 -73 1129 -255 1620 -583 189 -126 346 -257 531 -441
242 -242 395 -433 576 -721 80 -128 262 -489 315 -625 148 -380 245 -771 285
-1150 17 -163 17 -642 0 -780 -97 -794 -423 -1447 -1008 -2022 -158 -155 -259
-242 -430 -370 -308 -229 -657 -425 -1059 -595 -185 -78 -598 -213 -815 -267
-381 -94 -958 -176 -1242 -176 l-68 0 2 523 3 522 55 3 c681 32 1327 213 1870
525 802 460 1312 1168 1411 1962 17 137 14 470 -5 634 -100 840 -537 1582
-1178 2004 -300 197 -587 307 -948 363 -139 22 -496 25 -665 5 -546 -63 -1031
-242 -1397 -518 -334 -252 -571 -587 -652 -922 -39 -160 -50 -276 -43 -461 17
-428 109 -747 299 -1031 76 -114 213 -259 328 -345 152 -115 391 -220 602
-264 623 -130 1330 119 1541 542 54 108 67 171 67 328 -1 268 -49 456 -156
601 -124 169 -341 184 -583 40 l-70 -41 30 -65 c80 -177 79 -356 -3 -525 -46
-94 -161 -206 -260 -254 -234 -112 -508 -78 -711 89 -150 124 -264 310 -317
517 -79 312 -57 574 70 833 189 385 627 666 1170 751 144 23 439 23 582 0 286
-45 561 -152 780 -306 117 -81 323 -286 406 -404 80 -115 180 -318 231 -471
148 -446 159 -988 28 -1385 -42 -130 -163 -365 -244 -479 -133 -186 -337 -378
-558 -526 -119 -80 -396 -217 -552 -274 -222 -81 -510 -143 -787 -171 -177
-19 -593 -8 -771 20 -533 81 -970 261 -1368 562 -103 78 -328 297 -414 403
-272 336 -469 765 -557 1215 -51 263 -61 373 -61 710 0 344 8 429 65 665 146
608 520 1145 1090 1567 606 449 1404 731 2252 798 140 11 591 5 713 -10z
m-3698 -5767 c23 -15 50 -41 59 -59 20 -36 -25 -18 1039 -414 407 -151 491
-184 516 -203 21 -16 69 -111 69 -137 0 -18 6 -20 67 -20 l68 0 82 -82 83 -83
0 -455 -1 -455 -82 -92 -81 -93 -518 0 -517 0 -112 85 c-62 47 -116 85 -121
85 -5 0 -89 11 -186 25 -97 13 -348 47 -557 75 -209 27 -395 52 -412 55 l-33
6 0 299 0 300 23 5 c17 4 759 104 1122 151 42 6 67 19 162 90 l113 84 150 0
c82 0 150 3 150 7 0 4 -12 25 -27 46 -26 37 -68 60 -512 279 l-485 238 -25
-24 c-57 -55 -136 -69 -206 -37 -105 47 -143 171 -84 268 51 82 175 109 256
56z"/>
</g>
</svg>
